<svg width="16" height="18" viewBox="0 0 16 18" fill="none" xmlns="http://www.w3.org/2000/svg">
<g clip-path="url(#clip0_5_38)">
<path d="M5.35558 13.6572C5.35558 13.7231 5.2815 13.7758 5.18809 13.7758C5.0818 13.7857 5.00771 13.733 5.00771 13.6572C5.00771 13.5914 5.0818 13.5387 5.1752 13.5387C5.27183 13.5288 5.35558 13.5815 5.35558 13.6572ZM4.35386 13.509C4.33132 13.5749 4.39573 13.6506 4.49236 13.6704C4.57611 13.7033 4.67274 13.6704 4.69206 13.6045C4.71139 13.5387 4.65019 13.4629 4.55356 13.4333C4.46982 13.4102 4.37641 13.4431 4.35386 13.509ZM5.77752 13.453C5.68411 13.4761 5.61969 13.5387 5.62936 13.6144C5.63902 13.6803 5.72277 13.7231 5.81939 13.7C5.9128 13.677 5.97722 13.6144 5.96756 13.5485C5.95789 13.486 5.87093 13.4431 5.77752 13.453ZM7.89691 0.831787C3.42945 0.831787 0.0120239 4.29999 0.0120239 8.86828C0.0120239 12.5209 2.26025 15.6466 5.47153 16.7467C5.88381 16.8224 6.02876 16.5622 6.02876 16.3481C6.02876 16.1439 6.01909 15.0175 6.01909 14.3258C6.01909 14.3258 3.76443 14.8199 3.29095 13.3443C3.29095 13.3443 2.92376 12.3859 2.39553 12.1389C2.39553 12.1389 1.65793 11.6218 2.44706 11.6316C2.44706 11.6316 3.24908 11.6975 3.69035 12.4814C4.39573 13.7527 5.57782 13.3872 6.03842 13.1698C6.1125 12.6428 6.32186 12.2772 6.55377 12.0598C4.75326 11.8556 2.93664 11.5888 2.93664 8.42034C2.93664 7.51459 3.18144 7.06007 3.69679 6.48038C3.61304 6.2663 3.33926 5.3836 3.78053 4.244C4.45371 4.02991 6.00299 5.13328 6.00299 5.13328C6.64718 4.94884 7.33968 4.85333 8.02574 4.85333C8.71181 4.85333 9.40431 4.94884 10.0485 5.13328C10.0485 5.13328 11.5978 4.02662 12.271 4.244C12.7122 5.3869 12.4384 6.2663 12.3547 6.48038C12.87 7.06336 13.1857 7.51788 13.1857 8.42034C13.1857 11.5987 11.2886 11.8523 9.48805 12.0598C9.78438 12.32 10.0356 12.8141 10.0356 13.5881C10.0356 14.698 10.026 16.0715 10.026 16.3416C10.026 16.5556 10.1741 16.8158 10.5832 16.7401C13.8041 15.6466 15.9879 12.5209 15.9879 8.86828C15.9879 4.29999 12.3644 0.831787 7.89691 0.831787ZM3.14279 12.1916C3.10091 12.2245 3.11058 12.3003 3.16533 12.3628C3.21687 12.4155 3.29095 12.4386 3.33282 12.3958C3.37469 12.3628 3.36503 12.2871 3.31027 12.2245C3.25874 12.1718 3.18466 12.1487 3.14279 12.1916ZM2.79492 11.9248C2.77238 11.9676 2.80459 12.0203 2.869 12.0532C2.92054 12.0862 2.98496 12.0763 3.00751 12.0302C3.03005 11.9874 2.99784 11.9347 2.93342 11.9017C2.869 11.882 2.81747 11.8918 2.79492 11.9248ZM3.83851 13.0973C3.78698 13.1401 3.8063 13.2389 3.88038 13.3015C3.95446 13.3773 4.04787 13.3872 4.08974 13.3345C4.13162 13.2916 4.11229 13.1928 4.04787 13.1302C3.97701 13.0545 3.88038 13.0446 3.83851 13.0973ZM3.47132 12.6131C3.41979 12.6461 3.41979 12.7317 3.47132 12.8075C3.52286 12.8832 3.60982 12.9162 3.6517 12.8832C3.70323 12.8404 3.70323 12.7548 3.6517 12.679C3.6066 12.6033 3.52286 12.5703 3.47132 12.6131Z" fill="white"/>
</g>
<defs>
<clipPath id="clip0_5_38">
<rect width="15.9759" height="16.8635" fill="white" transform="translate(0.0120239 0.568268)"/>
</clipPath>
</defs>
</svg>
