<svg width="14" height="16" viewBox="0 0 14 16" fill="none" xmlns="http://www.w3.org/2000/svg">
<g clip-path="url(#clip0_5_28)">
<path d="M7.00277 4.6579C5.11276 4.6579 3.58828 6.14876 3.58828 7.99708C3.58828 9.84539 5.11276 11.3362 7.00277 11.3362C8.89278 11.3362 10.4173 9.84539 10.4173 7.99708C10.4173 6.14876 8.89278 4.6579 7.00277 4.6579ZM7.00277 10.168C5.7814 10.168 4.7829 9.19441 4.7829 7.99708C4.7829 6.79974 5.77843 5.82618 7.00277 5.82618C8.22711 5.82618 9.22264 6.79974 9.22264 7.99708C9.22264 9.19441 8.22414 10.168 7.00277 10.168ZM11.3534 4.52131C11.3534 4.95433 10.9967 5.30016 10.5569 5.30016C10.1141 5.30016 9.76052 4.95142 9.76052 4.52131C9.76052 4.0912 10.1171 3.74246 10.5569 3.74246C10.9967 3.74246 11.3534 4.0912 11.3534 4.52131ZM13.6148 5.31179C13.5643 4.26848 13.3206 3.34432 12.5391 2.58291C11.7605 1.82149 10.8155 1.58319 9.74863 1.53088C8.6491 1.46985 5.35347 1.46985 4.25394 1.53088C3.19007 1.58028 2.24506 1.81859 1.46351 2.58C0.681946 3.34141 0.441238 4.26557 0.387747 5.30888C0.325341 6.38416 0.325341 9.60709 0.387747 10.6824C0.438266 11.7257 0.681946 12.6498 1.46351 13.4112C2.24506 14.1727 3.1871 14.411 4.25394 14.4633C5.35347 14.5243 8.6491 14.5243 9.74863 14.4633C10.8155 14.4139 11.7605 14.1756 12.5391 13.4112C13.3177 12.6498 13.5613 11.7257 13.6148 10.6824C13.6772 9.60709 13.6772 6.38707 13.6148 5.31179ZM12.1943 11.8361C11.9626 12.4057 11.5138 12.8445 10.9284 13.0741C10.0517 13.4142 7.97155 13.3357 7.00277 13.3357C6.03399 13.3357 3.95083 13.4112 3.07714 13.0741C2.49469 12.8474 2.04596 12.4086 1.8112 11.8361C1.46351 10.9788 1.54374 8.94448 1.54374 7.99708C1.54374 7.04967 1.46648 5.01245 1.8112 4.15804C2.04299 3.58844 2.49172 3.14961 3.07714 2.92002C3.9538 2.58 6.03399 2.65847 7.00277 2.65847C7.97155 2.65847 10.0547 2.58291 10.9284 2.92002C11.5109 3.1467 11.9596 3.58553 12.1943 4.15804C12.542 5.01536 12.4618 7.04967 12.4618 7.99708C12.4618 8.94448 12.542 10.9817 12.1943 11.8361Z" fill="white"/>
</g>
<defs>
<clipPath id="clip0_5_28">
<rect width="13.3133" height="14.8795" fill="white" transform="translate(0.343384 0.560242)"/>
</clipPath>
</defs>
</svg>
