<svg width="14" height="16" viewBox="0 0 14 16" fill="none" xmlns="http://www.w3.org/2000/svg">
<g clip-path="url(#clip0_5_34)">
<path d="M13.6567 6.57683C12.3484 6.58008 11.0722 6.15613 10.0083 5.36487V10.8834C10.008 11.9055 9.7073 12.9031 9.14654 13.7428C8.58579 14.5826 7.79167 15.2244 6.87037 15.5825C5.94906 15.9407 4.9445 15.998 3.99099 15.7469C3.03747 15.4958 2.18047 14.9482 1.53457 14.1773C0.888668 13.4064 0.484655 12.449 0.376553 11.4331C0.268451 10.4172 0.461412 9.39125 0.929636 8.49238C1.39786 7.59351 2.11903 6.8646 2.99671 6.4031C3.87439 5.9416 4.86675 5.76952 5.84109 5.90986V8.68548C5.39523 8.53976 4.91645 8.54415 4.47314 8.69802C4.02982 8.8519 3.64463 9.14739 3.37258 9.5423C3.10053 9.93721 2.95552 10.4113 2.95828 10.897C2.96103 11.3826 3.1114 11.855 3.38791 12.2465C3.66442 12.6381 4.05293 12.9288 4.49796 13.0773C4.94299 13.2257 5.42178 13.2242 5.86596 13.0731C6.31014 12.9219 6.69699 12.6288 6.97127 12.2355C7.24555 11.8423 7.39322 11.369 7.39321 10.8834V0.0952454H10.0083C10.0065 0.324711 10.025 0.553865 10.0636 0.779809C10.1545 1.28419 10.3434 1.76401 10.6189 2.18992C10.8943 2.61583 11.2505 2.97887 11.6656 3.25683C12.2562 3.6626 12.9487 3.87887 13.6567 3.87872V6.57683Z" fill="white"/>
</g>
<defs>
<clipPath id="clip0_5_34">
<rect width="13.3133" height="15.8095" fill="white" transform="translate(0.343384 0.0952454)"/>
</clipPath>
</defs>
</svg>
