<svg width="28" height="25" viewBox="0 0 28 25" fill="none" xmlns="http://www.w3.org/2000/svg">
<path d="M26.7194 6.03181C26.4141 4.88216 25.5145 3.97673 24.3722 3.66946C22.3019 3.11111 14 3.11111 14 3.11111C14 3.11111 5.69824 3.11111 3.62784 3.66946C2.48563 3.97678 1.58603 4.88216 1.2807 6.03181C0.725952 8.11562 0.725952 12.4633 0.725952 12.4633C0.725952 12.4633 0.725952 16.811 1.2807 18.8948C1.58603 20.0444 2.48563 20.9122 3.62784 21.2194C5.69824 21.7778 14 21.7778 14 21.7778C14 21.7778 22.3018 21.7778 24.3722 21.2194C25.5145 20.9122 26.4141 20.0444 26.7194 18.8948C27.2741 16.811 27.2741 12.4633 27.2741 12.4633C27.2741 12.4633 27.2741 8.11562 26.7194 6.03181ZM11.2849 16.4107V8.51594L18.2236 12.4634L11.2849 16.4107Z" fill="white"/>
</svg>
