<svg width="14" height="16" viewBox="0 0 14 16" fill="none" xmlns="http://www.w3.org/2000/svg">
<g clip-path="url(#clip0_5_26)">
<path d="M12.7057 1.08334H1.29136C0.768338 1.08334 0.343384 1.53107 0.343384 2.0807V13.9193C0.343384 14.4689 0.768338 14.9166 1.29136 14.9166H12.7057C13.2287 14.9166 13.6566 14.4689 13.6566 13.9193V2.0807C13.6566 1.53107 13.2287 1.08334 12.7057 1.08334ZM4.36708 12.9405H2.39386V6.33876H4.37005V12.9405H4.36708ZM3.38047 5.43713C2.7475 5.43713 2.23636 4.90294 2.23636 4.24833C2.23636 3.59372 2.7475 3.05953 3.38047 3.05953C4.01047 3.05953 4.52458 3.59372 4.52458 4.24833C4.52458 4.90603 4.01344 5.43713 3.38047 5.43713ZM11.7637 12.9405H9.79044V9.72916C9.79044 8.96338 9.77559 7.97838 8.76521 7.97838C7.73699 7.97838 7.57949 8.81208 7.57949 9.67358V12.9405H5.60628V6.33876H7.49926V7.2404H7.526C7.79048 6.72165 8.43535 6.17511 9.39521 6.17511C11.3922 6.17511 11.7637 7.543 11.7637 9.32157V12.9405Z" fill="white"/>
</g>
<defs>
<clipPath id="clip0_5_26">
<rect width="13.3133" height="15.8095" fill="white" transform="translate(0.343384 0.0952454)"/>
</clipPath>
</defs>
</svg>
