<svg width="50" height="50" viewBox="0 0 50 50" fill="none" xmlns="http://www.w3.org/2000/svg">
<path d="M43.75 25V40.625C43.75 41.4538 43.4208 42.2487 42.8347 42.8347C42.2487 43.4208 41.4538 43.75 40.625 43.75H9.375C8.5462 43.75 7.75134 43.4208 7.16529 42.8347C6.57924 42.2487 6.25 41.4538 6.25 40.625V9.37501C6.25 8.54621 6.57924 7.75135 7.16529 7.1653C7.75134 6.57925 8.5462 6.25001 9.375 6.25001H25C25.4144 6.25001 25.8118 6.41463 26.1049 6.70765C26.3979 7.00068 26.5625 7.39811 26.5625 7.81251C26.5625 8.22691 26.3979 8.62434 26.1049 8.91736C25.8118 9.21039 25.4144 9.37501 25 9.37501H9.375V40.625H40.625V25C40.625 24.5856 40.7896 24.1882 41.0826 23.8952C41.3757 23.6021 41.7731 23.4375 42.1875 23.4375C42.6019 23.4375 42.9993 23.6021 43.2924 23.8952C43.5854 24.1882 43.75 24.5856 43.75 25ZM44.8555 13.6055L26.1055 32.3555C25.9603 32.5005 25.7879 32.6156 25.5982 32.694C25.4085 32.7724 25.2053 32.8127 25 32.8125H18.75C18.3356 32.8125 17.9382 32.6479 17.6451 32.3549C17.3521 32.0618 17.1875 31.6644 17.1875 31.25V25C17.1873 24.7948 17.2276 24.5915 17.306 24.4018C17.3845 24.2121 17.4995 24.0398 17.6445 23.8945L36.3945 5.14454C36.5396 4.99926 36.712 4.88402 36.9017 4.80538C37.0913 4.72675 37.2947 4.68628 37.5 4.68628C37.7053 4.68628 37.9087 4.72675 38.0983 4.80538C38.288 4.88402 38.4604 4.99926 38.6055 5.14454L44.8555 11.3945C45.0007 11.5397 45.116 11.712 45.1946 11.9017C45.2733 12.0913 45.3137 12.2947 45.3137 12.5C45.3137 12.7053 45.2733 12.9087 45.1946 13.0984C45.116 13.288 45.0007 13.4604 44.8555 13.6055ZM41.5352 12.5L37.5 8.45899L35.0215 10.9375L39.0625 14.9785L41.5352 12.5Z" fill="white"/>
</svg>
