<svg width="25" height="25" viewBox="0 0 25 25" fill="none" xmlns="http://www.w3.org/2000/svg">
<path d="M13.2812 21.0938C13.2812 21.301 13.3636 21.4997 13.5101 21.6462C13.6566 21.7927 13.8553 21.875 14.0625 21.875H20.3125C20.5197 21.875 20.7184 21.7927 20.8649 21.6462C21.0114 21.4997 21.0938 21.301 21.0938 21.0938V3.90625C21.0938 3.69905 21.0114 3.50034 20.8649 3.35382C20.7184 3.20731 20.5197 3.125 20.3125 3.125H14.0625C13.8553 3.125 13.6566 3.20731 13.5101 3.35382C13.3636 3.50034 13.2812 3.69905 13.2812 3.90625C13.2812 4.11345 13.3636 4.31216 13.5101 4.45868C13.6566 4.60519 13.8553 4.6875 14.0625 4.6875H19.5312V20.3125H14.0625C13.8553 20.3125 13.6566 20.3948 13.5101 20.5413C13.3636 20.6878 13.2812 20.8865 13.2812 21.0938ZM2.57227 11.9473L6.47852 8.04102C6.58778 7.93163 6.72704 7.85713 6.87867 7.82693C7.0303 7.79673 7.18747 7.81221 7.3303 7.87139C7.47313 7.93057 7.59519 8.0308 7.68103 8.15939C7.76687 8.28798 7.81262 8.43914 7.8125 8.59375V11.7188H14.0625C14.2697 11.7188 14.4684 11.8011 14.6149 11.9476C14.7614 12.0941 14.8438 12.2928 14.8438 12.5C14.8438 12.7072 14.7614 12.9059 14.6149 13.0524C14.4684 13.1989 14.2697 13.2812 14.0625 13.2812H7.8125V16.4062C7.81262 16.5609 7.76687 16.712 7.68103 16.8406C7.59519 16.9692 7.47313 17.0694 7.3303 17.1286C7.18747 17.1878 7.0303 17.2033 6.87867 17.1731C6.72704 17.1429 6.58778 17.0684 6.47852 16.959L2.57227 13.0527C2.49963 12.9802 2.442 12.894 2.40269 12.7992C2.36337 12.7043 2.34314 12.6027 2.34314 12.5C2.34314 12.3973 2.36337 12.2957 2.40269 12.2008C2.442 12.106 2.49963 12.0198 2.57227 11.9473Z" fill="white"/>
</svg>
